<?xml version="1.0" encoding="utf-8"?>
<!-- Generator: Adobe Illustrator 24.1.3, SVG Export Plug-In . SVG Version: 6.00 Build 0)  -->
<svg version="1.1" id="Layer_1" xmlns="http://www.w3.org/2000/svg" xmlns:xlink="http://www.w3.org/1999/xlink" x="0px" y="0px"
	 viewBox="0 0 878 660" style="enable-background:new 0 0 878 660;" xml:space="preserve">
<style type="text/css">
	.st0{opacity:0.5;fill-rule:evenodd;clip-rule:evenodd;fill:#FFFFFF;enable-background:new    ;}
	.st1{fill:#97989D;}
	.st2{fill:#965450;}
	.st3{fill:#76413B;}
	.st4{fill:#051F38;}
	.st5{fill:#43394F;}
	.st6{opacity:0.2;fill:#352C38;enable-background:new    ;}
	.st7{fill:#A28F61;}
	.st8{opacity:0.1;fill:#161826;enable-background:new    ;}
	.st9{fill:#23173B;}
	.st10{fill:#1D1C1F;}
	.st11{fill:#FFFFFF;}
	.st12{fill:#1F2733;}
	.st13{fill:#091E1D;}
	.st14{fill:#3B6B4F;}
	.st15{opacity:0.1;fill:#0B0C1C;enable-background:new    ;}
	.st16{fill:#041523;}
	.st17{fill:#FFB39F;}
	.st18{fill:#E09B8D;}
	.st19{fill:#DD9078;}
	.st20{fill:#E1EDFF;}
	.st21{fill:#C0D5FF;}
	.st22{fill:#B1C5E8;}
	.st23{fill:#3B3146;}
</style>
<path class="st0" d="M868.1,660H1.3C-9.7,512.2,136,419.1,215.2,368.5c10.3-6.6,19.4-12.4,27-17.6c33.1-22.6,57.6-72.1,83.7-124.6
	C374,129.4,427.3,21.9,549.2,51.6C656.4,77.8,817.4,189.3,878,356.2v277.1C875,642.1,871.7,651,868.1,660z"/>
<path class="st1" d="M482,465c-134.2,0-243,10.3-243,23s108.8,23,243,23s243-10.3,243-23S616.2,465,482,465z"/>
<path class="st2" d="M683.4,398.8c0,0-32.3,92.2-35.8,92.2s-72.8,21.9-11.6-5.8c0,0,6.9-100.3,17.3-104.9
	C663.7,375.8,683.4,398.8,683.4,398.8z"/>
<path class="st3" d="M659.1,465.2c10.5-27.3,24.3-66.4,24.3-66.4s-19.6-23.1-30-18.4c-6.7,3-12,46.1-14.9,76.1
	C645.4,459.2,652.2,462.2,659.1,465.2z"/>
<path class="st4" d="M626,490.2c0,0-2.7,6.1,22.8-0.3l-1.2,3.5C647.6,493.4,575.9,510.2,626,490.2z"/>
<path class="st2" d="M663.7,359.7c0,0,50,84.1,47.8,86.7c-2.2,2.7-29.9,69.8-11.9,5.1c0,0-72.6-69.8-69.4-80.7
	C633.5,360,663.7,359.7,663.7,359.7z"/>
<path class="st4" d="M697.1,462.3c0,0,3,6,14.3-17.6l2,3.1C713.3,447.8,680.3,513.5,697.1,462.3z"/>
<path class="st3" d="M692.9,409.8c-13.4-23.6-29.1-50-29.1-50s-30.3,0.2-33.5,11.1c-2.1,7,27.7,38.9,48.9,60.3
	C679.2,431.2,687.4,422.1,692.9,409.8z"/>
<path class="st5" d="M695.5,233.4c0,0-30.6-34-48.5-12.7s-45.6,91.7-41.6,120.5c2.4,16.9,18.7,35.1,31.8,47.2l-11,61.8
	c0,0,45.1,12.1,42.2,12.1c-1.7,0,44.5-123.9,49.1-163.1C722.1,259.9,695.5,233.4,695.5,233.4z"/>
<path class="st6" d="M672.1,241c8.5-0.1,17.9-1.3,26.1-4.6c-1.6-2-2.7-3-2.7-3s-30.6-34-48.5-12.7c-2.8,3.3-5.8,7.7-8.8,13
	C648.3,239.2,661,241.2,672.1,241z"/>
<path class="st6" d="M626.2,257.5c-12.7,28.9-23.5,64.9-20.8,83.6c2.3,16.8,18.5,34.8,31.5,46.9c4.6-31.4,13.1-74.9,18.1-100.1
	C642.5,280.8,632.1,270.5,626.2,257.5z"/>
<path class="st2" d="M607.1,165.3L588.6,201c0,0-32.3-17.9-37-17.9c-4.6,0-26.6,0.6-16.2,5.2c0,0-4.6,2.9,0.6,4c0,0-4.6,4,1.2,4.6
	l13.3-0.6c0,0,26.6,24.2,39.9,27.7c13.3,3.5,34.7-41.5,34.7-41.5L607.1,165.3z"/>
<path class="st3" d="M610.1,190.9c2.9,1,5.9,2.1,8.9,3.1c3.7-6.5,6-11.5,6-11.5l-17.9-17.3L597,184.8
	C601,187.4,605.5,189.3,610.1,190.9z"/>
<path class="st7" d="M630.2,148c0,0-17.3-2.9-23.7,6.3s-9.2,24.2-9.2,24.2l24.8,12.1L630.2,148z"/>
<path class="st8" d="M620.6,180.7c-6.4-5-13.6-11.2-18.4-18.7c-3.5,8.1-5.1,16.5-5.1,16.5l24.8,12.1l1.5-7.8
	C622.6,182.2,621.6,181.5,620.6,180.7z"/>
<path class="st9" d="M508.7,178.9c0.7,1.8-0.3,3.9-2.2,4.6l-13.6,5c-1.8,0.7-3.9-0.3-4.6-2.2l-5.4-15.1c-0.7-1.8,0.3-3.9,2.2-4.6
	l13.6-5c1.8-0.7,3.9,0.3,4.6,2.2L508.7,178.9z"/>
<path class="st5" d="M519.7,167.6L476.9,183c-7.5,2.7-11.3,11-8.7,18.4l13.2,36.6c2.7,7.5,11,11.3,18.5,8.6l42.7-15.3
	c7.5-2.7,11.3-11,8.7-18.4l-13.2-36.6C535.4,168.8,527.2,164.9,519.7,167.6z M547.2,216.2c1,3-0.5,6.3-3.5,7.4l-18.4-50.7
	c3-1,6.4,0.5,7.4,3.5L547.2,216.2z"/>
<path class="st5" d="M505.9,163.6c0.6,1.6-0.2,3.5-1.8,4l-19.4,7c-1.6,0.6-3.5-0.2-4-1.8l-1.6-4.5c-0.6-1.6,0.2-3.5,1.8-4l19.4-7
	c1.6-0.6,3.5,0.2,4,1.8L505.9,163.6z"/>
<path class="st2" d="M533.2,185.5c0,0,7.3-2.5,8.6-1c1.2,1.4-6.1,3.5-5.8,3.6c0.2,0.1,7.9-1.6,8.5,0c0.7,1.6-8.1,4.5-8.1,4.5
	s8.3-2.3,8.9-0.6c0.6,1.7-8.7,4.3-8.7,4.3l-0.5-3.8l-0.6-4.4L533.2,185.5z"/>
<path class="st2" d="M543.5,183.6c0,0-5.7-3.8-5.7-5.1c-0.1-1.4,15,5,15,5L543.5,183.6z"/>
<path class="st3" d="M655.1,145.2c-1.2,2.1,4.5-46.2,4.5-46.2l-26.2,17.6c0,0,2.3,30.9-0.6,31c-1.2,0-5.7,1.7-10.6,3.6
	c1.2,5.8,3.5,7,5.4,12.6c14.7-0.1,30.6-0.5,39.6-13.8C662,148.2,656.6,142.3,655.1,145.2z"/>
<path class="st7" d="M630.2,148l-1.2-4l28.9-6.3l1.2,6.9c0,0,34.7,11.5,39.3,37.5c4.6,25.9,2.3,42.7-2.9,51.3c0,0-40.4,5.8-57.8-2.9
	c-17.3-8.6-35.2-73.2-26-79C621,145.7,630.2,148,630.2,148z"/>
<path class="st8" d="M668,219.9c-13.9-0.8-30.8-2.4-42.4-11c-2.2-1.6-4.2-3.3-6-5.3c5.2,12.8,11.7,23.6,18.1,26.9
	c17.3,8.6,57.8,2.9,57.8,2.9c2.3-3.8,4-9.2,4.9-16.4C690,220.1,679.1,220.6,668,219.9z"/>
<path class="st2" d="M666.6,199.9l29.5-2.3c0,0-7.5,51.9-16.2,69.8s-48.5,88.2-32.9,49c0,0-20.2,30.6-2.9-0.6c0,0-19.1,24.8-2.3-1.7
	c0,0-19.6,22.5,1.2-9.2c0,0-15.6,7.5,1.7-5.2l16.8-43.8L666.6,199.9z"/>
<path class="st3" d="M695.4,201.8c0.5-2.7,0.7-4.3,0.7-4.3l-29.5,2.3l-0.2,3C676,202.8,685.7,202.3,695.4,201.8z"/>
<path class="st10" d="M635.8,67.9c0,0,14.7-8.5,36.2,5.5c14.2,9.3,13.5,39.2-17.2,58.8C618.2,155.5,635.8,67.9,635.8,67.9z"/>
<path class="st2" d="M656.1,83.8c0,0-16.5-12.8-30.6-6.6c-17.8,8.1-15.9,26.9-16.3,42.9c-0.5,21.3,16.4,25.4,21.5,25.6
	C638.2,146.2,668.8,144.4,656.1,83.8z"/>
<path class="st2" d="M657.7,103.8c0,0,0.7-3.2,6.2-0.7c7,3.3,3.2,20.2-4.6,19.7C651.4,122.4,657.7,103.8,657.7,103.8z"/>
<path class="st4" d="M657.7,103.8c0,0,0.9,11.5-1.7,11.6c-2.8,0.1-5.7-20.9,2-20.9C665.6,94.8,657.7,103.8,657.7,103.8z"/>
<path class="st10" d="M657.7,103.8c0,0-5.7-25.6-39.3-21.3c0,0,4.9-9.6,15.5-14.1c14.4-6.1,36,18.4,30,34.7
	C664,103.1,661.2,103.4,657.7,103.8z"/>
<path class="st10" d="M671.9,80.1c0,0-1.8-30.6,5.5-30.6c7.4,0-0.6,25.7-0.6,25.7s6.2-36.7,24-31.2s-12.9,31.2-12.9,31.2
	S702,62.3,707,66.7c4.9,4.3-20.2,12.9-20.2,12.9s19.1-5.5,21.5,3.7C710.6,92.5,671.4,91.2,671.9,80.1z"/>
<path class="st4" d="M610.1,97.9c0,0,0-0.2,0.2-0.7s0.5-1,1-1.6c0.6-0.6,1.3-1.3,2.2-1.7c0.2-0.1,0.5-0.2,0.8-0.3
	c0.2-0.1,0.6-0.2,0.8-0.2c0.3,0,0.6-0.1,0.9-0.1h0.9c0.6,0,1.2,0.2,1.7,0.5c0.6,0.2,1,0.5,1.5,0.8s0.8,0.7,1.2,1
	c0.3,0.3,0.6,0.7,0.7,1c0.1,0.1,0.2,0.3,0.2,0.5c0.1,0.1,0.1,0.3,0.2,0.5c0.1,0.3,0.2,0.6,0.2,0.8c0.1,0.5,0.1,0.7,0.1,0.7
	s-0.2-0.1-0.7-0.2c-0.2-0.1-0.5-0.2-0.7-0.3c-0.2-0.1-0.6-0.2-0.9-0.5c-0.3-0.1-0.6-0.3-0.9-0.5c-0.3-0.1-0.7-0.2-1-0.3
	c-0.3-0.1-0.7-0.2-1-0.3c-0.3,0-0.7-0.1-1-0.1H616c-0.1,0-0.3,0-0.6,0s-0.7,0.1-1,0.1c-0.3,0.1-0.7,0.1-1,0.2s-0.7,0.1-1,0.2
	c-0.7,0.2-1.3,0.3-1.6,0.5C610.5,97.9,610.1,97.9,610.1,97.9z"/>
<path class="st11" d="M619,129.6c0,0,18.9,0.6,20.2,0.3C640.4,129.7,628.6,138.9,619,129.6z"/>
<path class="st12" d="M620.3,108.5c0,0,0,0.2-0.1,0.7s-0.2,1-0.5,1.8c-0.1,0.3-0.2,0.8-0.5,1.2c-0.1,0.2-0.2,0.5-0.3,0.6
	c-0.1,0.2-0.3,0.5-0.5,0.6c-0.3,0.3-0.7,0.8-1.3,1c-0.1,0.1-0.2,0.1-0.5,0.2l-0.3,0.1c-0.2,0.1-0.6,0.1-0.9,0.1
	c-0.6,0-1.3-0.1-1.7-0.6c-0.5-0.3-0.8-0.8-1-1.4c-0.2-0.5-0.3-0.9-0.5-1.4c-0.1-0.5-0.1-0.9-0.1-1.3c0-0.8,0-1.4,0.1-1.8
	c0.1-0.5,0.2-0.7,0.2-0.7s0,1,0.3,2.5c0.1,0.7,0.3,1.6,0.8,2.3c0.2,0.3,0.5,0.7,0.8,0.9c0.3,0.2,0.7,0.3,1,0.3c0.2,0,0.3,0,0.6-0.1
	l0.3-0.1c0,0,0.1-0.1,0.2-0.1c0.3-0.1,0.7-0.5,1-0.7c0.3-0.3,0.6-0.7,0.8-1s0.5-0.7,0.6-1c0.3-0.7,0.6-1.3,0.8-1.6
	C620.2,108.7,620.3,108.5,620.3,108.5z"/>
<path class="st12" d="M639.4,110c0,0,0,0.2-0.1,0.7s-0.2,1-0.5,1.8c-0.1,0.3-0.2,0.8-0.5,1.2c-0.1,0.2-0.2,0.5-0.3,0.6
	c-0.1,0.2-0.3,0.5-0.5,0.6c-0.3,0.3-0.7,0.8-1.3,1c-0.1,0.1-0.2,0.1-0.5,0.2l-0.3,0.1c-0.2,0.1-0.6,0.1-0.9,0.1
	c-0.6,0-1.3-0.1-1.7-0.6c-0.5-0.3-0.8-0.8-1-1.4c-0.2-0.5-0.3-0.9-0.5-1.4c-0.1-0.5-0.1-0.9-0.1-1.3c0-0.8,0-1.4,0.1-1.8
	c0.1-0.5,0.2-0.7,0.2-0.7s0,1,0.3,2.5c0.1,0.7,0.3,1.6,0.8,2.3c0.2,0.3,0.5,0.7,0.8,0.9c0.3,0.2,0.7,0.3,1,0.3c0.2,0,0.3,0,0.6-0.1
	l0.3-0.1c0,0,0.1-0.1,0.2-0.1c0.3-0.1,0.7-0.5,1-0.7c0.3-0.3,0.6-0.7,0.8-1s0.5-0.7,0.6-1c0.3-0.7,0.6-1.3,0.8-1.6
	C639.2,110.2,639.4,110,639.4,110z"/>
<path class="st3" d="M660.4,119.6c0.3-0.5,0.6-0.8,0.8-1.3s0.3-0.9,0.5-1.4c0-0.2,0-0.5,0-0.7c0-0.1-0.1-0.2-0.1-0.2
	c0-0.1-0.1-0.2-0.2-0.2c-0.1-0.1-0.1-0.1-0.2-0.2l-0.2-0.2c-0.1-0.1-0.2-0.1-0.3-0.1l-0.3-0.1l-0.2-0.1v-0.2
	c-0.3-1.3-0.5-2.4-0.6-3.7c-0.1-0.6-0.1-1.3,0-1.8c0-0.7,0.1-1.3,0.3-2c0.1-0.3,0.3-0.7,0.7-0.9c0.3-0.2,0.8-0.5,1.2-0.3
	c0.5,0,0.7,0.1,1,0.2s0.7,0.2,0.9,0.5c0.2,0.2,0.6,0.5,0.7,0.7c0.2,0.2,0.3,0.6,0.5,0.8c0.2,0.6,0.3,1.3,0.2,1.8
	c-0.1-0.6-0.2-1.2-0.6-1.7c-0.1-0.2-0.3-0.5-0.6-0.7c-0.2-0.2-0.5-0.3-0.7-0.5c-0.2-0.1-0.5-0.2-0.8-0.2c-0.2,0-0.6-0.1-0.8-0.1
	c-0.5,0-0.7,0.3-0.8,0.8c-0.3,1-0.2,2.2-0.2,3.3c0.1,1.2,0.2,2.4,0.5,3.6l-0.2-0.3l0.3,0.2c0.1,0.1,0.2,0.1,0.3,0.2l0.3,0.2
	c0.1,0.1,0.2,0.2,0.3,0.3c0.1,0.1,0.2,0.2,0.2,0.5c0.1,0.1,0.1,0.3,0.1,0.5c0.1,0.3,0,0.6,0,0.9c-0.1,0.6-0.5,1-0.8,1.5
	C661.2,118.9,660.7,119.3,660.4,119.6z"/>
<path class="st3" d="M622,124.4c-0.6,0.1-1,0.1-1.5,0.1s-0.9-0.1-1.3-0.2c-0.5-0.1-0.8-0.3-1.2-0.5c-0.2-0.1-0.3-0.2-0.6-0.3
	c-0.2-0.1-0.3-0.2-0.6-0.3l-0.7-0.6l0.1-0.5c1.2-3.3,2.3-6.6,3.5-9.8c1.2-3.2,2.4-6.6,3.7-9.8c-0.8,3.3-1.7,6.8-2.5,10.1
	c-0.9,3.3-1.8,6.7-2.8,10l-0.5-1c0.2,0,0.5,0.1,0.7,0.1s0.5,0.1,0.6,0.2c0.3,0.1,0.8,0.3,1.2,0.6c0.3,0.2,0.7,0.6,1,0.9
	C621.5,123.6,621.8,123.9,622,124.4z"/>
<path class="st4" d="M628.8,96.5c0,0,0.1-0.3,0.5-0.7c0.2-0.2,0.3-0.5,0.7-0.8c0.3-0.2,0.6-0.6,1-0.8c0.3-0.2,0.8-0.6,1.4-0.8
	c0.5-0.2,1-0.5,1.6-0.7c0.6-0.1,1.3-0.3,2-0.3c0.3,0,0.7,0,1,0l1,0.1c0.7,0,1.4,0.3,2,0.5s1.2,0.6,1.7,0.8c0.6,0.3,1,0.7,1.4,1
	c0.5,0.3,0.8,0.8,1,1.2c0.3,0.3,0.6,0.7,0.8,1s0.3,0.7,0.5,0.9c0.2,0.5,0.3,0.8,0.3,0.8s-0.3-0.1-0.8-0.3c-0.2-0.1-0.6-0.2-0.9-0.5
	c-0.3-0.2-0.7-0.3-1.2-0.5c-0.3-0.1-0.8-0.3-1.3-0.6c-0.5-0.1-0.9-0.3-1.4-0.5c-0.5-0.1-0.9-0.2-1.4-0.3c-0.5,0-0.9-0.2-1.5-0.2
	l-0.7-0.1H636c-0.5,0-1,0-1.5,0s-0.9,0-1.4,0.1c-0.5,0-0.9,0.1-1.4,0.1c-0.8,0.1-1.6,0.2-2.1,0.3C629.2,96.5,628.8,96.5,628.8,96.5z
	"/>
<path class="st13" d="M612.9,490.8c0,4.2-3.3,7.6-7.5,7.7c-4.2,0-7.6-3.3-7.7-7.5l-0.3-24.4c0-4.2,3.4-7.6,7.5-7.7
	c4.2,0,7.6,3.3,7.7,7.5L612.9,490.8z"/>
<path class="st13" d="M506.5,492.1c0,4.1-3.4,7.6-7.5,7.7c-4.2,0-7.6-3.3-7.7-7.5l-0.3-24.4c0-4.2,3.4-7.6,7.5-7.7
	c4.2,0,7.6,3.3,7.7,7.5L506.5,492.1z"/>
<path class="st14" d="M604.4,473.4c0.1,9.5-7.5,17.2-17,17.3l-71.2,0.8c-9.5,0.1-17.2-7.5-17.3-16.9L491.3,313
	c-0.1-9.5,7.5-17.2,17-17.3l82.6-1c9.5-0.1,17.2,7.5,17.3,16.9L604.4,473.4z"/>
<path class="st15" d="M607.7,327.8l0.3-16c-0.1-9.5-7.9-17.1-17.3-16.9l-82.6,1c-9.5,0.1-17.1,7.8-17,17.3l0.8,16L607.7,327.8z"/>
<path class="st14" d="M621.8,307.7c0,2.7-2.1,4.7-4.7,4.8l-134.9,1.6c-2.7,0-4.7-2.1-4.9-4.7l-0.2-17.1c0-2.7,2.1-4.7,4.7-4.8
	l134.9-1.6c2.7,0,4.7,2.1,4.9,4.7L621.8,307.7z"/>
<path class="st11" d="M550.2,355.1l15.7-9.5l-3.8,9.8L550.2,355.1z"/>
<path class="st11" d="M544.3,340.2c0,0,1.3,0,3.2,3c2,3,6.4,11.1,6.4,11.1l8-3.6l1.8-3.1c0,0-3.5-6.9-6.2-7.4H544.3z"/>
<path class="st11" d="M539.9,342.3c0,0,2.4-2.7,4.4-1.3s5.4,7.1,5.4,7.1L544,358l-10.2-5.6L539.9,342.3z"/>
<path class="st11" d="M557.3,367.5l0.8,18.2l-6.8-8L557.3,367.5z"/>
<path class="st11" d="M573.3,369.3c0,0-0.6,1.2-4.2,1.5c-3.6,0.3-12.8,0.3-12.8,0.3l-0.7,8.8l1.8,3.1c0,0,7.7,0.3,9.5-2L573.3,369.3
	z"/>
<path class="st11" d="M573.4,364.5c0,0,1.3,3.3-0.9,4.5c-2.1,1-8.9,1.3-8.9,1.3l-6.1-9.7l9.8-6.3L573.4,364.5z"/>
<path class="st11" d="M543.5,367.2l-16.2-8.5l10.4-1.8L543.5,367.2z"/>
<path class="st11" d="M533.9,380c0,0-0.7-1,0.8-4.3c1.5-3.2,6.1-11.2,6.1-11.2l-7.2-5l-3.6,0.1c0,0-4.2,6.6-3.1,9.1L533.9,380z"/>
<path class="st11" d="M537.9,382.6c0,0-3.6-0.7-3.3-3c0.1-2.4,3.3-8.3,3.3-8.3l11.4-0.3l0.5,11.6L537.9,382.6L537.9,382.6z"/>
<path class="st4" d="M302.2,445.2c0,0-2.5,40.7-4.7,41.5c-8.4,2.9-72.1,19-11.9-8.1L284,449L302.2,445.2z"/>
<path class="st16" d="M299.6,476.8c1.5-12.3,2.7-31.6,2.7-31.6L284,449l1.5,26.4C290,476.6,295.2,476.8,299.6,476.8z"/>
<path class="st11" d="M260.1,492.8c-1.8,4.5,31.4-4,37.4-6.1c0.1-0.1,0.3-0.3,0.6-0.9C290.6,487.8,267.8,493,260.1,492.8z"/>
<path class="st4" d="M341.2,443c0,0,3.4,40.7,5.7,41.4c8.5,2.8,72.4,17.6,11.7-8.3l1-29.6L341.2,443z"/>
<path class="st16" d="M344.5,474.5c-1.7-12.2-3.4-31.5-3.4-31.5l18.4,3.5l-0.9,26.4C354.1,474.2,348.9,474.3,344.5,474.5z"/>
<path class="st11" d="M384.4,489.8c2,4.5-31.5-3.5-37.5-5.4c-0.2,0-0.3-0.3-0.6-0.9C353.8,485.5,376.6,490.2,384.4,489.8z"/>
<path class="st7" d="M352.4,223.2c0,0,16.6,134.1,13.3,242.6c0,0-19.9,5.5-25.1,1.5c-4.5-25.7-3.9-75.8-10.6-112.9
	c-6.4-35-8.9-63.8-8.9-63.8l-2.1-2.3c0,0-13.6,169.5-16.6,182.4c-17.2,4-22.6-0.7-22.6-0.7s-7.9-212-3-246.3
	C283,179.1,352.4,223.2,352.4,223.2z"/>
<path class="st8" d="M355.4,251c-1.7-17.3-3.1-27.7-3.1-27.7s-69.3-44.2-75.7,0.6c-0.6,4.2-0.9,11-1.3,19.6
	C280.5,246.4,345.5,255.6,355.4,251z"/>
<path class="st8" d="M319.8,287c0.8,9.1,5,38.5,10.2,67.4c6.7,37.2,6.1,87.2,10.6,112.9c5.2,4,25.1-1.5,25.1-1.5
	c2-66.8-3.5-143.2-8.1-192.1C346.6,280.6,332.6,284,319.8,287z"/>
<path class="st17" d="M325.7,106c0.1-14.1,1.2-32.6,1.2-32.6l-27.7-7.6c0,0,0.9,25.1,1.7,40.5c-12.6,4.3-26.9,12.3-26.9,12.3
	l52.3,13.3l18.6-18C344.9,113.8,335.5,109.1,325.7,106z"/>
<path class="st18" d="M325.7,106c0.1-14.1,1.2-32.6,1.2-32.6l-27.7-7.6c0,0,0.9,25.1,1.7,40.5c-12.6,4.3-26.9,12.3-26.9,12.3
	l52.3,13.3l24.7-21.2C351,110.6,335.6,104.8,325.7,106z"/>
<path class="st17" d="M296.7,39.1c0,0,7.3-23.5,26.5-19.8s22,28.7,24.4,45.5c2.4,16.9-3,32.2-18,34
	C316.5,100.4,293.7,97.9,296.7,39.1z"/>
<path class="st17" d="M297.6,58.8c0,0-1.2-3.1-5.9,0.3c-6,4.4,0.1,20.5,7.4,18.8C306.4,76.2,297.6,58.8,297.6,58.8z"/>
<path class="st10" d="M290.9,25.6c0.5-0.1,9.5-0.8,3.5-0.2c5.5,6,5,7.5,12.6,8.9c4,12.5-3.9,19.9-3.9,19.9l2.2,15l-5.8,0.6
	c0,0,0.1-10.4-4.3-11.3c-4.4-0.9-5.7,4.4-5.7,4.4C280.4,51.3,271.2,28.7,290.9,25.6z"/>
<path class="st10" d="M343.3,17.2C347,8.1,340.7,0,340.7,0c1,3.3,0.6,6.5-0.5,9c-0.7-2.5-2-5.3-4.3-8.1c0,0,0.7,9.2-11.9,8.1
	c-12.6-1.2-34.7,0.6-35.6,20.1c-1,19.5,17.8,5.3,17.8,5.3s37.5,10.5,43-19.7L343.3,17.2z"/>
<path class="st4" d="M325.5,50.8c0,0-0.3,0-0.8-0.1c-0.6-0.1-1.3-0.2-2.1-0.3c-0.5-0.1-0.8-0.1-1.3-0.1c-0.5-0.1-0.9-0.1-1.4-0.1
	s-0.9,0-1.5,0c-0.2,0-0.5,0-0.7,0l-0.7,0.1c-0.5,0-0.9,0.1-1.5,0.2c-0.5,0.1-0.9,0.2-1.4,0.3s-0.9,0.3-1.4,0.5
	c-0.5,0.1-0.8,0.3-1.3,0.5c-0.3,0.1-0.8,0.2-1,0.5c-0.3,0.1-0.6,0.2-0.8,0.3c-0.5,0.2-0.8,0.3-0.8,0.3s0.1-0.3,0.3-0.8
	c0.1-0.2,0.2-0.6,0.5-0.9c0.2-0.3,0.5-0.7,0.8-1s0.6-0.8,1-1.2c0.5-0.3,0.9-0.7,1.5-1c0.6-0.2,1.2-0.6,1.7-0.8
	c0.7-0.2,1.3-0.3,2-0.5l1-0.1c0.3,0,0.7,0,1,0.1c0.3,0,0.7,0.1,0.9,0.1c0.3,0.1,0.6,0.1,0.9,0.2c0.6,0.2,1.2,0.3,1.6,0.7
	c0.5,0.2,0.9,0.6,1.4,0.8c0.3,0.2,0.7,0.6,1,0.8c0.2,0.2,0.5,0.6,0.7,0.7C325.2,50.5,325.5,50.8,325.5,50.8z"/>
<path class="st4" d="M345,50.3c0,0-0.2-0.1-0.7-0.2c-0.5-0.1-1-0.3-1.6-0.6c-0.3-0.1-0.7-0.2-1-0.3s-0.7-0.2-1-0.2s-0.7-0.1-1-0.2
	c-0.1,0-0.3,0-0.5-0.1h-0.5c-0.3-0.1-0.7,0.1-1,0c-0.3,0.1-0.7,0.1-1,0.2c-0.3,0.1-0.7,0.2-1,0.3s-0.7,0.2-0.9,0.3
	c-0.3,0.1-0.7,0.2-0.9,0.3c-0.2,0.1-0.5,0.2-0.7,0.2c-0.5,0.1-0.7,0.2-0.7,0.2s0-0.2,0.2-0.7c0.1-0.2,0.1-0.5,0.3-0.8
	c0.1-0.3,0.3-0.6,0.6-0.9s0.5-0.7,0.8-1s0.8-0.6,1.2-0.9c0.5-0.2,1-0.5,1.5-0.7c0.6-0.1,1.2-0.2,1.7-0.2c0.3,0,0.6,0,0.9,0
	s0.6,0.1,0.8,0.2c0.2,0,0.6,0.1,0.8,0.2c0.2,0.1,0.5,0.2,0.7,0.3c0.9,0.6,1.6,1.2,2.1,1.8c0.5,0.7,0.7,1.3,0.9,1.7
	C345,50,345,50.3,345,50.3z"/>
<path class="st19" d="M330.8,51.5c0.7,1.5,1.4,3.1,2.1,4.6c0.3,0.8,0.6,1.5,0.9,2.3l0.9,2.3l0.9,2.3c0.3,0.8,0.6,1.5,0.9,2.3
	l0.5,1.2c0.1,0.3,0.3,0.8,0.5,1.2c0.3,0.7,0.7,1.4,1,2.2l0.3,0.9l-0.7,0.3c-1,0.5-2.1,1-3.2,1.5c-1,0.5-2.2,0.9-3.3,1.3
	c0.9-0.8,1.8-1.5,2.8-2.2c0.9-0.7,2-1.4,2.9-2.1l-0.3,1.3c-0.5-0.7-0.9-1.5-1.4-2.2s-0.8-1.5-1.2-2.3l-0.6-1.2l-0.5-1.2
	c-0.2-0.8-0.6-1.6-0.8-2.4l-0.7-2.4c-0.2-0.8-0.3-1.6-0.6-2.4C331.1,55,330.9,53.3,330.8,51.5z"/>
<path class="st19" d="M297.3,74.6c-0.5-0.2-0.9-0.6-1.3-1c-0.3-0.3-0.8-0.8-1-1.4c-0.1-0.2-0.2-0.6-0.2-0.9c0-0.1,0-0.3,0-0.5
	c0-0.1,0.1-0.3,0.1-0.5c0.1-0.3,0.3-0.6,0.6-0.8c0.1-0.1,0.2-0.2,0.3-0.3l0.3-0.2l-0.2,0.3c0-1.3,0-2.5-0.1-3.7
	c-0.1-1.3-0.2-2.5-0.7-3.6c-0.1-0.2-0.2-0.5-0.5-0.6c-0.1-0.1-0.3-0.2-0.6-0.2c-0.1,0-0.2,0-0.3,0.1c-0.1,0-0.3,0.1-0.5,0.1
	c-0.2,0.1-0.5,0.2-0.7,0.5c-0.2,0.2-0.5,0.3-0.6,0.6c-0.1,0.2-0.3,0.5-0.5,0.8c-0.2,0.6-0.3,1.2-0.3,1.8c-0.2-0.6-0.2-1.3-0.1-2
	c0-0.3,0.1-0.7,0.3-0.9c0.1-0.3,0.3-0.6,0.6-0.8l0.3-0.3l0.5-0.3c0.1-0.1,0.3-0.1,0.5-0.2c0.1-0.1,0.3-0.1,0.6-0.2
	c0.5-0.1,0.9,0,1.3,0.3c0.3,0.2,0.6,0.6,0.7,0.9c0.3,0.7,0.5,1.3,0.7,2c0.1,0.7,0.2,1.3,0.2,2c0.1,1.3,0.1,2.5,0,3.9v0.2l-0.2,0.1
	c-0.2,0.1-0.5,0.2-0.6,0.5c-0.1,0.1-0.3,0.3-0.5,0.5c-0.1,0.1-0.1,0.2-0.1,0.3c0,0.1-0.1,0.2-0.1,0.3c0,0.2,0,0.5,0,0.7
	c0.1,0.5,0.3,0.9,0.7,1.4C296.6,73.9,296.9,74.3,297.3,74.6z"/>
<path class="st12" d="M315.4,61.8c0,0,0.1,0.2,0.2,0.7c0.1,0.2,0.1,0.5,0.2,0.7s0.2,0.6,0.5,0.9c0.1,0.3,0.5,0.6,0.6,0.9
	c0.1,0.1,0.2,0.2,0.5,0.5c0.1,0.1,0.2,0.2,0.5,0.3c0.3,0.2,0.7,0.3,1,0.5c0.2,0,0.3,0.1,0.6,0.1s0.3,0,0.6-0.1l0.6-0.2l0.6-0.3
	c0.3-0.2,0.6-0.6,0.8-0.9c0.2-0.3,0.3-0.7,0.6-1c0.1-0.3,0.2-0.7,0.2-1.2c0-0.3,0-0.7,0.1-0.9c0-0.3,0-0.6,0-0.8c0-0.5,0-0.7,0-0.7
	s0.1,0.2,0.2,0.7c0.1,0.2,0.1,0.5,0.2,0.8c0,0.3,0.1,0.7,0.1,1s0,0.8-0.1,1.3s-0.2,0.9-0.5,1.4c-0.2,0.5-0.6,0.9-1,1.3l-0.7,0.5
	c-0.2,0.1-0.6,0.2-0.8,0.3c-0.2,0-0.6,0.1-0.9,0.1c-0.2,0-0.6-0.1-0.8-0.1c-0.6-0.1-1-0.5-1.5-0.8s-0.7-0.8-0.9-1.2
	c-0.2-0.5-0.5-0.8-0.6-1.2c-0.1-0.3-0.2-0.7-0.2-1s0-0.6,0-0.8C315.4,62,315.4,61.8,315.4,61.8z"/>
<path class="st12" d="M336.3,58.3c0,0,0.1,0.2,0.2,0.7c0.1,0.2,0.1,0.5,0.2,0.7s0.2,0.6,0.5,0.9c0.1,0.3,0.5,0.6,0.6,0.9
	c0.1,0.1,0.2,0.2,0.5,0.5c0.1,0.1,0.2,0.2,0.5,0.3c0.3,0.2,0.7,0.3,1,0.5c0.2,0,0.3,0.1,0.6,0.1c0.2,0,0.3,0,0.6-0.1l0.6-0.2
	l0.6-0.3c0.3-0.2,0.6-0.6,0.8-0.9c0.2-0.3,0.3-0.7,0.6-1c0.1-0.3,0.2-0.7,0.2-1.2c0-0.3,0-0.7,0.1-0.9c0-0.3,0-0.6,0-0.8
	c0-0.5,0-0.7,0-0.7s0.1,0.2,0.2,0.7c0.1,0.2,0.1,0.5,0.2,0.8c0,0.3,0.1,0.7,0.1,1s0,0.8-0.1,1.3s-0.2,0.9-0.5,1.4
	c-0.2,0.5-0.6,0.9-1,1.3l-0.7,0.5c-0.2,0.1-0.6,0.2-0.8,0.3c-0.2,0-0.6,0.1-0.9,0.1c-0.2,0-0.6-0.1-0.8-0.1c-0.6-0.1-1-0.5-1.5-0.8
	s-0.7-0.8-0.9-1.2c-0.2-0.5-0.5-0.8-0.6-1.2c-0.1-0.3-0.2-0.7-0.2-1s0-0.6,0-0.8C336.3,58.6,336.3,58.3,336.3,58.3z"/>
<path class="st19" d="M317.2,78.1C317.2,78.1,317.1,78.1,317.2,78.1c0.1,0.2,0.3,0.3,0.6,0.4c0.5,0.3,1.3,0.7,2.2,1.2
	c0.9,0.5,2.1,0.9,3.2,1.3c0.6,0.2,1.3,0.3,1.8,0.5c0.6,0.1,1.3,0.2,2,0.3c1.3,0.1,2.5,0.2,3.8,0.1s2.3-0.3,3.4-0.7
	c0.9-0.3,1.7-0.6,2.3-0.8c0.6-0.2,0.9-0.3,0.9-0.3s-0.2,0.3-0.7,0.7c-0.5,0.5-1.2,1-2.1,1.6s-2.2,1.2-3.6,1.4
	c-1.4,0.3-2.9,0.3-4.4,0.2c-0.7-0.1-1.5-0.2-2.2-0.5c-0.7-0.2-1.4-0.5-2-0.8c-1.3-0.6-2.3-1.3-3.1-2c-0.8-0.7-1.5-1.4-1.8-2
	C317.4,78.6,317.2,78.3,317.2,78.1C317.1,78.1,317.1,78.2,317.2,78.1z"/>
<path class="st14" d="M335.3,105.6c0,0,29.6-3.1,33.4,19.5c3.8,22.7,3.5,28.8,3.5,28.8l-28.9-4.3L335.3,105.6z"/>
<path class="st14" d="M360.2,123.8c-1.7-14.4-16.4-17.5-25-18.2c-3.8,5.3-9.1,9.1-16.4,9.3c-8.3,0.2-15.9-2.7-20-9
	c-12.9,1.5-25.8,5.2-28.7,14c-6.1,18.4-0.8,119.9-0.8,119.9s51.8,8.9,94.3,0.8C363.6,240.7,362.6,143.1,360.2,123.8z"/>
<path class="st6" d="M267.2,169.3c0.2,33.4,2.2,70.7,2.2,70.7s51.8,8.9,94.3,0.8c0,0-0.8-74.1-2.5-106
	C329.9,146.4,298.5,158,267.2,169.3z"/>
<path class="st20" d="M299.1,196c0,0-1.2-3.3,4.2-5.5c5.3-2.2,60.1-16.5,63.5-16c3.5,0.5,45.9,5.5,46.6,7.8s-50.7,18.9-50.7,18.9
	L299.1,196z"/>
<path class="st21" d="M365.6,205.6c0,0-60-0.2-64.6-5.6c-4.6-5.4-4.7-9.3,21.5-4.7s41.4,3.9,41.4,3.9s48.1-22.4,49.7-16.9
	C415,187.7,420.1,186.3,365.6,205.6z"/>
<path class="st22" d="M413.4,182.3c-1.5-5.4-49.7,16.9-49.7,16.9s-0.1,0-0.5,0c1,2.1,1.8,4,2.8,6.2
	C420.1,186.3,415,187.7,413.4,182.3z"/>
<path class="st20" d="M297.4,183.7c0,0-1.2-3.3,4.2-5.5c5.3-2.2,60.1-16.5,63.5-16c3.5,0.5,45.9,5.5,46.6,7.8S361,188.9,361,188.9
	L297.4,183.7z"/>
<path class="st21" d="M363.8,193.4c0,0-60-0.2-64.6-5.7c-4.6-5.4-4.7-9.3,21.5-4.7s41.4,3.9,41.4,3.9s48.1-22.4,49.7-16.9
	C413.2,175.4,418.4,174,363.8,193.4z"/>
<path class="st22" d="M411.7,170.1C410.2,164.6,362,187,362,187s-0.1,0-0.5,0c1,2.1,1.8,4,2.8,6.2
	C418.2,174,413.2,175.4,411.7,170.1z"/>
<path class="st20" d="M297.2,173.6c0,0-1-2.9,4-4.8c5.1-2,58.1-14.5,61.5-14.1c3.4,0.5,44.4,5,45.1,6.9c0.7,2-49.1,16.7-49.1,16.7
	L297.2,173.6z"/>
<path class="st21" d="M361.4,182.2c0,0-58-0.2-62.5-5c-4.5-4.7-4.5-8.2,20.8-4.2s40,3.5,40,3.5s46.6-19.7,48.1-14.9
	C409.2,166.4,414.2,165.1,361.4,182.2z"/>
<path class="st22" d="M407.7,161.6c-1.5-4.7-48.1,14.9-48.1,14.9s-0.1,0-0.5,0c0.9,1.7,1.8,3.6,2.7,5.4
	C414.2,165.1,409.2,166.4,407.7,161.6z"/>
<path class="st11" d="M298.8,160.1c0,0-0.9-2.9,4.3-4.7c5.2-1.7,58.6-12.3,61.9-11.8c3.4,0.5,44.1,6.6,44.7,8.5S360,167,360,167
	L298.8,160.1z"/>
<path class="st21" d="M362.7,171.1c0,0-58-2.4-62.3-7.3c-4.3-5-4.3-8.3,20.9-3.3c25.2,5,39.9,5,39.9,5s47.3-17.9,48.5-13.1
	C411.1,157,416,156,362.7,171.1z"/>
<path class="st22" d="M409.7,152.3c-1.3-4.8-48.5,13.1-48.5,13.1s-0.1,0-0.5,0c0.9,1.8,1.7,3.7,2.4,5.5
	C415.9,156,411,157,409.7,152.3z"/>
<path class="st17" d="M268.6,162.3l28.5-6.9c0,0,6.1,41.5,7.7,43.8s49.3,4.6,49.3,4.6l13.9,0.8c0,0-58.6,24.6-75.4,14.6
	C275.6,209.2,268.6,162.3,268.6,162.3z"/>
<path class="st18" d="M271.4,167.3c8.8-2.7,17.3-5.9,26.3-7.8c-0.3-2.5-0.6-4-0.6-4l-28.5,6.9c0,0,0.3,2.1,0.9,5.5
	C270.2,167.6,270.8,167.4,271.4,167.3z"/>
<path class="st17" d="M362.8,208.5c0,0,21.7-5.8,21.7-10.1c0-4.4-7.9-20.2-2.3,0.9c0,0-11.6-28.6-2.3,1.4c0,0-9-23.3-2.9,0.6
	c0,0-9.2-16.1-2.5,1.2l-8.3,3.1l-20-0.2l-10.6,10.4L362.8,208.5z"/>
<path class="st17" d="M413.6,187.4c0,0-11.6-28.6-2.3,1.4c0,0-9-23.3-2.9,0.6c0,0-9.2-16.1-3.4,1.3l-6.4,3c2.3,0.2,5.3,0.1,7.7-0.7
	c7.4-1.5,9.5-4,9.5-6.3C415.9,182.2,408.1,166.4,413.6,187.4z"/>
<path class="st13" d="M443.1,490.8c0,4.2-3.4,7.6-7.5,7.7c-4.2,0-7.6-3.3-7.7-7.5l-0.3-24.4c0-4.2,3.4-7.6,7.5-7.7
	c4.2,0,7.6,3.3,7.7,7.5L443.1,490.8z"/>
<path class="st13" d="M336.7,492.1c0,4.1-3.3,7.6-7.5,7.7c-4.2,0-7.6-3.3-7.7-7.5l-0.3-24.4c0-4.2,3.3-7.6,7.5-7.7
	c4.2,0,7.6,3.3,7.7,7.5L336.7,492.1z"/>
<path class="st5" d="M434.5,473.4c0.1,9.5-7.5,17.2-17,17.3l-71.2,0.8c-9.5,0.1-17.2-7.5-17.3-16.9L321.4,313
	c-0.1-9.5,7.5-17.2,17-17.3l82.6-1c9.5-0.1,17.2,7.5,17.3,16.9L434.5,473.4z"/>
<path class="st23" d="M437.9,327.8l0.3-16c-0.1-9.5-7.9-17.1-17.3-16.9l-82.6,1c-9.5,0.1-17.1,7.8-17,17.3l0.8,16L437.9,327.8z"/>
<path class="st5" d="M452,307.7c0,2.7-2.1,4.7-4.7,4.8l-134.9,1.6c-2.7,0-4.7-2.1-4.9-4.7l-0.2-17.1c0-2.7,2.1-4.7,4.7-4.8
	l134.9-1.6c2.7,0,4.7,2.1,4.9,4.7L452,307.7z"/>
<path class="st11" d="M380.3,355.1l15.7-9.5l-3.8,9.8L380.3,355.1z"/>
<path class="st11" d="M374.5,340.2c0,0,1.3,0,3.2,3c2,3,6.4,11.1,6.4,11.1l8-3.6l1.8-3.1c0,0-3.5-6.9-6.2-7.4H374.5z"/>
<path class="st11" d="M370.1,342.3c0,0,2.4-2.7,4.4-1.3c2,1.4,5.4,7.1,5.4,7.1l-5.7,9.9l-10.2-5.6L370.1,342.3z"/>
<path class="st11" d="M387.5,367.5l0.8,18.2l-6.8-8L387.5,367.5z"/>
<path class="st11" d="M403.5,369.3c0,0-0.6,1.2-4.2,1.5s-12.8,0.3-12.8,0.3l-0.7,8.8l1.8,3.1c0,0,7.7,0.3,9.5-2L403.5,369.3z"/>
<path class="st11" d="M403.6,364.5c0,0,1.3,3.3-0.9,4.5c-2.1,1-8.9,1.3-8.9,1.3l-6.1-9.7l9.8-6.3L403.6,364.5z"/>
<path class="st11" d="M373.8,367.2l-16.2-8.5l10.3-1.8L373.8,367.2z"/>
<path class="st11" d="M364.1,380c0,0-0.7-1,0.8-4.3c1.5-3.2,6.1-11.2,6.1-11.2l-7.2-5l-3.6,0.1c0,0-4.2,6.6-3.1,9.1L364.1,380z"/>
<path class="st11" d="M368.2,382.6c0,0-3.6-0.7-3.4-3c0.1-2.4,3.4-8.3,3.4-8.3l11.4-0.3l0.5,11.6L368.2,382.6L368.2,382.6z"/>
</svg>
