<?xml version="1.0" encoding="utf-8"?>
<!-- Generator: Adobe Illustrator 24.1.3, SVG Export Plug-In . SVG Version: 6.00 Build 0)  -->
<svg version="1.1" id="Layer_1" xmlns="http://www.w3.org/2000/svg" xmlns:xlink="http://www.w3.org/1999/xlink" x="0px" y="0px"
	 viewBox="0 0 150 50" style="enable-background:new 0 0 150 50;" xml:space="preserve">
<style type="text/css">
	.st0{fill:#382F43;}
</style>
<path class="st0" d="M20.4,37.2V15h15v4.2h-10v4.4h8.9v4.1h-8.9V33h10.7v4.2H20.4z"/>
<path class="st0" d="M38.4,28.8c0-1.2,0.2-2.4,0.6-3.4c0.4-1.1,1-2,1.7-2.8s1.7-1.5,2.7-1.9c1.1-0.5,2.3-0.7,3.6-0.7
	c0.9,0,1.7,0.1,2.5,0.3c0.7,0.1,1.5,0.4,2.2,0.7l-1,3.8c-0.4-0.2-0.9-0.3-1.5-0.4c-0.5-0.1-1.1-0.2-1.8-0.2c-1.4,0-2.5,0.4-3.2,1.3
	s-1,2-1,3.5s0.3,2.7,1,3.5c0.7,0.8,1.8,1.2,3.4,1.2c0.6,0,1.2-0.1,1.9-0.2c0.7-0.1,1.3-0.3,1.8-0.5l0.7,3.9
	c-0.6,0.2-1.2,0.4-2.1,0.6s-1.7,0.3-2.8,0.3c-1.5,0-2.9-0.2-4-0.7s-2-1.1-2.8-1.9c-0.7-0.8-1.2-1.7-1.6-2.8
	C38.5,31.2,38.4,30,38.4,28.8z"/>
<path class="st0" d="M70.1,28.7c0,1.3-0.2,2.5-0.6,3.6s-0.9,2-1.7,2.8c-0.7,0.8-1.6,1.4-2.6,1.8c-1,0.4-2.1,0.6-3.4,0.6
	c-1.2,0-2.4-0.2-3.4-0.6c-1-0.4-1.9-1-2.6-1.8c-0.7-0.8-1.3-1.7-1.7-2.8c-0.4-1.1-0.6-2.3-0.6-3.6c0-1.3,0.2-2.5,0.6-3.6
	c0.4-1.1,1-2,1.7-2.8s1.6-1.4,2.6-1.8s2.1-0.6,3.3-0.6s2.3,0.2,3.3,0.6s1.9,1,2.6,1.8s1.3,1.7,1.7,2.8
	C69.9,26.2,70.1,27.4,70.1,28.7z M65.2,28.7c0-1.5-0.3-2.6-0.9-3.5s-1.4-1.3-2.5-1.3s-1.9,0.4-2.5,1.3c-0.6,0.8-0.9,2-0.9,3.5
	s0.3,2.6,0.9,3.5c0.6,0.9,1.4,1.3,2.5,1.3s1.9-0.4,2.5-1.3C64.9,31.4,65.2,30.2,65.2,28.7z"/>
<path class="st0" d="M80.5,37.5c-1.4,0-2.5-0.2-3.4-0.4c-0.9-0.3-1.5-0.7-2-1.2s-0.8-1.1-1-1.8s-0.3-1.5-0.3-2.4V13.1l4.8-0.8v18.3
	c0,0.4,0,0.8,0.1,1.2c0.1,0.3,0.2,0.6,0.4,0.9c0.2,0.2,0.5,0.4,0.8,0.6c0.3,0.1,0.8,0.2,1.4,0.3L80.5,37.5z"/>
<path class="st0" d="M83.1,28.9c0-1.5,0.2-2.8,0.7-3.9s1.1-2.1,1.8-2.8c0.7-0.7,1.6-1.3,2.6-1.7c1-0.4,2-0.6,3-0.6
	c2.4,0,4.3,0.7,5.7,2.2c1.4,1.5,2.1,3.6,2.1,6.4c0,0.3,0,0.6,0,0.9s0,0.6-0.1,0.9H88c0.1,1,0.6,1.8,1.4,2.3c0.8,0.6,1.9,0.9,3.3,0.9
	c0.9,0,1.7-0.1,2.6-0.2c0.9-0.2,1.5-0.4,2.1-0.6l0.6,3.9c-0.3,0.1-0.6,0.3-1,0.4c-0.4,0.1-0.9,0.2-1.4,0.3s-1.1,0.2-1.7,0.3
	s-1.2,0.1-1.8,0.1c-1.5,0-2.8-0.2-4-0.7c-1.1-0.4-2-1.1-2.8-1.8c-0.7-0.8-1.3-1.7-1.6-2.8C83.3,31.3,83.1,30.1,83.1,28.9z
	 M94.3,27.1c0-0.4-0.1-0.8-0.2-1.2c-0.1-0.4-0.3-0.7-0.5-1s-0.5-0.5-0.9-0.7s-0.8-0.3-1.4-0.3c-0.5,0-1,0.1-1.4,0.3
	c-0.4,0.2-0.7,0.4-1,0.7s-0.5,0.7-0.6,1.1s-0.2,0.8-0.3,1.2h6.3V27.1z"/>
<path class="st0" d="M102.4,16.2l4.8-0.8v5h5.7v4h-5.7v5.9c0,1,0.2,1.8,0.5,2.4c0.4,0.6,1.1,0.9,2.1,0.9c0.5,0,1,0,1.6-0.1
	s1.1-0.2,1.5-0.4l0.7,3.7c-0.6,0.2-1.2,0.4-1.9,0.6s-1.6,0.3-2.6,0.3c-1.3,0-2.4-0.2-3.2-0.5c-0.9-0.4-1.5-0.9-2-1.5
	s-0.9-1.4-1.1-2.3c-0.2-0.9-0.3-1.9-0.3-3L102.4,16.2L102.4,16.2z"/>
<path class="st0" d="M122.6,33.9c0.5,0,0.9,0,1.3,0s0.8-0.1,1-0.1v-3.6c-0.2,0-0.5-0.1-0.9-0.1s-0.7-0.1-1.1-0.1s-0.9,0-1.3,0.1
	c-0.4,0-0.7,0.1-1,0.3c-0.3,0.1-0.5,0.4-0.7,0.6c-0.2,0.3-0.3,0.6-0.3,1c0,0.7,0.2,1.3,0.7,1.6C121,33.7,121.7,33.9,122.6,33.9z
	 M122.2,19.9c1.4,0,2.6,0.2,3.5,0.5s1.7,0.8,2.2,1.4c0.6,0.6,1,1.3,1.2,2.2c0.2,0.9,0.4,1.8,0.4,2.8v9.9c-0.7,0.1-1.6,0.3-2.8,0.5
	c-1.2,0.2-2.7,0.3-4.4,0.3c-1.1,0-2.1-0.1-3-0.3s-1.6-0.5-2.3-0.9c-0.6-0.4-1.1-1-1.5-1.7c-0.3-0.7-0.5-1.6-0.5-2.6
	c0-1,0.2-1.8,0.6-2.5s0.9-1.2,1.6-1.6s1.4-0.7,2.3-0.9c0.9-0.2,1.7-0.3,2.7-0.3c0.6,0,1.2,0,1.6,0.1c0.5,0,0.9,0.1,1.2,0.2v-0.4
	c0-0.8-0.2-1.5-0.7-2s-1.3-0.7-2.6-0.7c-0.8,0-1.6,0.1-2.4,0.2s-1.5,0.3-2,0.5l-0.6-3.8c0.3-0.1,0.6-0.2,1-0.3
	c0.4-0.1,0.9-0.2,1.4-0.3c0.5-0.1,1-0.1,1.5-0.2C121.1,19.9,121.7,19.9,122.2,19.9z"/>
</svg>
