<?xml version="1.0" encoding="utf-8"?>
<!-- Generator: Adobe Illustrator 24.1.3, SVG Export Plug-In . SVG Version: 6.00 Build 0)  -->
<svg version="1.1" id="Layer_1" xmlns="http://www.w3.org/2000/svg" xmlns:xlink="http://www.w3.org/1999/xlink" x="0px" y="0px"
	 viewBox="0 0 50 50" style="enable-background:new 0 0 50 50;" xml:space="preserve">
<style type="text/css">
	.st0{fill:#3B6B4F;}
	.st1{fill:#326046;}
	.st2{fill:#498060;}
	.st3{fill:#427557;}
</style>
<path class="st0" d="M16.3,5.8l-4.6,8.7c-0.3,0.6-0.1,1.3,0.4,1.6l7.2,4.2c0.5,0.3,1.2,0.1,1.6-0.4L29.6,4H19.3
	C18,4,16.9,4.7,16.3,5.8z"/>
<path class="st1" d="M29.6,4l-8.8,16c-0.3,0.6-1,0.8-1.6,0.4l-1.9-1.1c0.5,0.1,0.9-0.1,1.2-0.6L26.7,4H29.6z"/>
<path class="st2" d="M39.2,12.5L36,5.9C35.5,4.8,34.3,4,33,4h-9.1l7,12.3c0,0,0,0-0.1,0c-0.4,0.2-0.4,0.9,0,1l6,2.4
	c0.3,0.1,0.6,0,0.7-0.3l2.3-6.3C40.1,12.7,39.6,12.3,39.2,12.5z"/>
<path class="st3" d="M39.9,13.2l-2.3,6.3c-0.1,0.3-0.4,0.4-0.7,0.3l-1.8-0.7l2.2-5.9c0.1-0.3-0.1-0.7-0.4-0.7
	c-0.3-0.1-0.5-0.3-0.6-0.5l-2.9-6c-0.6-1.2-1.8-1.9-3-1.9H33c1.3,0,2.5,0.8,3,1.9l3.2,6.5C39.6,12.3,40.1,12.7,39.9,13.2z"/>
<path class="st0" d="M33.1,37.6c-0.1-0.4-0.5-0.5-0.8-0.2l-4.7,4.9c-0.2,0.2-0.2,0.5,0,0.7l4.7,4.9c0.3,0.3,0.7,0.1,0.8-0.2h7
	c1.3,0,2.5-0.7,3-1.9l4-8.1L33.1,37.6L33.1,37.6z"/>
<path class="st1" d="M39,37.6l2.3,3.5c0.5,0.8,0.6,1.8,0.1,2.7l-0.9,1.9c-0.6,1.2-1.8,1.9-3,1.9h2.7c1.3,0,2.5-0.7,3-1.9l4-8.1H39
	L39,37.6z"/>
<path class="st0" d="M23.6,46.7V38c0-0.7-0.5-1.2-1.1-1.2H3.7L8.5,46c0.6,1.1,1.7,1.8,3,1.8h10.9C23.1,47.9,23.6,47.3,23.6,46.7z"/>
<path class="st1" d="M11.7,36.9l-4.2,7.2l-3.8-7.2H11.7z"/>
<path class="st1" d="M23.6,38v8.7c0,0.7-0.5,1.2-1.1,1.2h-3c0.6,0,1.1-0.5,1.1-1.2V38c0-0.7-0.5-1.2-1.1-1.2h3
	C23.1,36.9,23.6,37.4,23.6,38z"/>
<path class="st2" d="M14.4,29.2l-0.8-6.6c0-0.3-0.3-0.6-0.6-0.5L6.6,23c-0.5,0.1-0.7,0.7-0.3,1l-4,6c-0.7,1.1-0.8,2.5-0.2,3.7
	L6.4,42l7.1-12.3l0,0C13.9,30.1,14.5,29.7,14.4,29.2z"/>
<path class="st3" d="M13.5,29.8L13.5,29.8L6.4,42L5,39.2l5.8-10l0.2-0.3c0.1-0.2,0.3-0.2,0.4-0.2l0,0c0.4,0.1,0.7-0.2,0.7-0.7
	l-0.7-5.8l1.7-0.2c0.3,0,0.6,0.2,0.6,0.5l0.8,6.6C14.5,29.7,13.9,30.1,13.5,29.8z"/>
<path class="st2" d="M49,29.6l-5.5-8.2c-0.3-0.5-1-0.7-1.5-0.4l-7.1,4.3c-0.6,0.3-0.7,1.1-0.4,1.7l10.1,15.8l4.7-9.6
	C49.8,32,49.8,30.6,49,29.6z"/>
<path class="st3" d="M49.3,33.2l-4.7,9.6L43,40.3l3.5-7.1c0.6-1.2,0.5-2.5-0.2-3.6l-5.3-8l1.1-0.6c0.5-0.3,1.2-0.2,1.5,0.4l5.5,8.2
	C49.8,30.6,49.8,32,49.3,33.2z"/>
</svg>
